{
  "asset": {
    "version": "2.0",
    "generator": "THREE.GLTFExporter"
  },
  "scenes": [
    {
      "name": "Scene",
      "nodes": [
        2
      ]
    }
  ],
  "scene": 0,
  "nodes": [
    {
      "matrix": [
        1,
        0,
        0,
        0,
        0,
        -3.0294626258705687e-7,
        0.9999999657714276,
        0,
        0,
        -0.9999999657714276,
        -3.0294626258705687e-7,
        0,
        -0.06512409448623657,
        -0.05863879699750851,
        0,
        1
      ],
      "name": "T_Shirt",
      "extras": {
        "name": "T Shirt"
      },
      "mesh": 0
    },
    {
      "matrix": [
        1,
        0,
        0,
        0,
        0,
        1,
        0,
        0,
        0,
        0,
        1,
        0,
        0,
        0.6277164547223634,
        0.05443255228903998,
        1
      ],
      "name": "T-Shirt-Malakgltf",
      "extras": {
        "name": "T-Shirt-Malak.gltf"
      },
      "children": [
        0
      ]
    },
    {
      "name": "shirt.gltf",
      "children": [
        1
      ]
    }
  ],
  "bufferViews": [
    {
      "buffer": 0,
      "byteOffset": 0,
      "byteLength": 14640,
      "target": 34962,
      "byteStride": 12
    },
    {
      "buffer": 0,
      "byteOffset": 14640,
      "byteLength": 14640,
      "target": 34962,
      "byteStride": 12
    },
    {
      "buffer": 0,
      "byteOffset": 29280,
      "byteLength": 9760,
      "target": 34962,
      "byteStride": 8
    },
    {
      "buffer": 0,
      "byteOffset": 39040,
      "byteLength": 12528,
      "target": 34963
    }
  ],
  "buffers": [
    {
      "byteLength": 51568,
      "uri": "data:application/octet-stream;base64,"
    }
  ],
  "accessors": [
    {
      "bufferView": 0,
      "componentType": 5126,
      "count": 1220,
      "max": [
        0.3373353183269501,
        0.5081909894943237,
        0.5691677331924438
      ],
      "min": [
        -0.196409672498703,
        -0.5081909894943237,
        -0.5266352295875549
      ],
      "type": "VEC3"
    },
    {
      "bufferView": 1,
      "componentType": 5126,
      "count": 1220,
      "max": [
        1,
        0.9996382594108582,
        0.9575045108795166
      ],
      "min": [
        -1,
        -0.9996382594108582,
        -0.9977980852127075
      ],
      "type": "VEC3"
    },
    {
      "bufferView": 2,
      "componentType": 5126,
      "count": 1220,
      "max": [
        0.9998509883880615,
        0.9998509883880615
      ],
      "min": [
        0.00014899999951012433,
        0.25755298137664795
      ],
      "type": "VEC2"
    },
    {
      "bufferView": 3,
      "componentType": 5123,
      "count": 6264,
      "max": [
        1219
      ],
      "min": [
        0
      ],
      "type": "SCALAR"
    }
  ],
  "materials": [
    {
      "pbrMetallicRoughness": {
        "baseColorFactor": [
          0.7991027380100881,
          0.7991027380100881,
          0.7991027380100881,
          1
        ],
        "metallicFactor": 0,
        "roughnessFactor": 1,
        "metallicRoughnessTexture": {
          "index": 0,
          "channel": 0
        }
      },
      "doubleSided": true,
      "name": "shirt"
    }
  ],
  "textures": [
    {
      "sampler": 0,
      "source": 0,
      "name": "Image"
    }
  ],
  "samplers": [
    {
      "magFilter": 9729,
      "minFilter": 9987,
      "wrapS": 10497,
      "wrapT": 10497
    }
  ],
  "images": [
    {
      "mimeType": "image/png",
      "uri": "data:image/png;base64,"
    }
  ],
  "meshes": [
    {
      "primitives": [
        {
          "mode": 4,
          "attributes": {
            "POSITION": 0,
            "NORMAL": 1,
            "TEXCOORD_0": 2
          },
          "indices": 3,
          "material": 0
        }
      ]
    }
  ]
}